<svg xmlns="http://www.w3.org/2000/svg" viewBox="0 0 640 480" fill="none">
  <rect width="640" height="480" fill="#1B3358"/>
  <g stroke="#2C4A78" stroke-width="1"><path d="M0 120H640M0 240H640M0 360H640M160 0V480M320 0V480M480 0V480"/></g>
  <!-- prancheta -->
  <rect x="150" y="70" width="230" height="310" rx="16" fill="#F1F4F9"/>
  <rect x="215" y="52" width="100" height="36" rx="10" fill="#E0A63E"/>
  <g stroke-linecap="round">
    <path d="M182 140l12 12 22-24" stroke="#E0A63E" stroke-width="7"/>
    <path d="M232 142h110" stroke="#9AA9C2" stroke-width="10"/>
    <path d="M182 200l12 12 22-24" stroke="#E0A63E" stroke-width="7"/>
    <path d="M232 202h86" stroke="#9AA9C2" stroke-width="10"/>
    <path d="M182 260l12 12 22-24" stroke="#E0A63E" stroke-width="7"/>
    <path d="M232 262h100" stroke="#9AA9C2" stroke-width="10"/>
    <rect x="184" y="306" width="28" height="28" rx="6" stroke="#9AA9C2" stroke-width="5"/>
    <path d="M232 322h70" stroke="#C9D2E1" stroke-width="10"/>
  </g>
  <!-- grafico crescente -->
  <g>
    <rect x="410" y="300" width="34" height="70" rx="6" fill="#3E5F93"/>
    <rect x="456" y="255" width="34" height="115" rx="6" fill="#5679B0"/>
    <rect x="502" y="200" width="34" height="170" rx="6" fill="#E0A63E"/>
    <path d="M412 280l48-44 44 22 52-74" stroke="#F1F4F9" stroke-width="5" stroke-linecap="round" stroke-linejoin="round"/>
    <path d="M540 180h20v20" stroke="#F1F4F9" stroke-width="5" stroke-linecap="round" stroke-linejoin="round"/>
  </g>
  <!-- balao de conversa -->
  <g>
    <rect x="420" y="70" width="150" height="86" rx="20" fill="#E0A63E"/>
    <path d="M450 156l-6 30 32-30z" fill="#E0A63E"/>
    <circle cx="460" cy="113" r="8" fill="#1B3358"/><circle cx="495" cy="113" r="8" fill="#1B3358"/><circle cx="530" cy="113" r="8" fill="#1B3358"/>
  </g>
</svg>
